<?xml version="1.0"?>
<svg xmlns="http://www.w3.org/2000/svg" id="Layer_1" data-name="Layer 1" viewBox="0 0 64 64"><title>Icons8 RSL Colored Part 6</title><path d="M59,59H5a2,2,0,0,1-2-2V30.51a1,1,0,0,1,1.39-.92l6.4,2.7a2,2,0,0,0,2.16-.39L26.17,19.3a2,2,0,0,1,1.93-.48l13.39,3.8a2,2,0,0,0,1.85-.41l16-13.8A1,1,0,0,1,61,9.18V57A2,2,0,0,1,59,59Z" style="fill:#ed7899;"/><path d="M59,59H5a2,2,0,0,1-2-2V39l19,3.9L34.59,31.32l13.27,5.62L61,31.43V57A2,2,0,0,1,59,59Z" style="fill:#85cbf8;"/><path d="M7,54H57a4,4,0,0,1,4,4v0a1,1,0,0,1-1,1H4a1,1,0,0,1-1-1v0a4,4,0,0,1,4-4Z" style="fill:#7bbeeb;"/><path d="M62,31V9.18a2,2,0,0,0-3.31-1.51l-16,13.79a1,1,0,0,1-.93.2l-13.39-3.8a3,3,0,0,0-2.89.71L12.26,31.17a1,1,0,0,1-1.08.2l-6.4-2.7A2,2,0,0,0,2,30.51V57a3,3,0,0,0,3,3H59a3,3,0,0,0,3-3V31ZM59,58H5a1,1,0,0,1-1-1V30.51l6.4,2.7a3,3,0,0,0,3.23-.59L26.86,20a1,1,0,0,1,1-.24l13.39,3.8A3,3,0,0,0,44,23L60,9.18V30.35L48,35.64a1,1,0,0,1-.83,0L35.72,30.22a3,3,0,0,0-3.43.61L22,41.32a1,1,0,0,1-.91.28l-6.64-1.32a1,1,0,0,0-.39,2l6.64,1.32a3,3,0,0,0,2.73-.85L33.72,32.23a1,1,0,0,1,1.14-.2l11.41,5.41a3,3,0,0,0,2.49,0L60,32.53V57A1,1,0,0,1,59,58Z" style="fill:#8d6c9f;"/><path d="M10.53,39.48,8.23,39a1,1,0,0,0-.39,2l2.3.46.2,0a1,1,0,0,0,.19-2Z" style="fill:#8d6c9f;"/><path d="M7,52a1,1,0,0,0-1,1v2a1,1,0,0,0,2,0V53A1,1,0,0,0,7,52Z" style="fill:#8d6c9f;"/><path d="M12,52a1,1,0,0,0-1,1v2a1,1,0,0,0,2,0V53A1,1,0,0,0,12,52Z" style="fill:#8d6c9f;"/><path d="M17,52a1,1,0,0,0-1,1v2a1,1,0,0,0,2,0V53A1,1,0,0,0,17,52Z" style="fill:#8d6c9f;"/><path d="M22,52a1,1,0,0,0-1,1v2a1,1,0,0,0,2,0V53A1,1,0,0,0,22,52Z" style="fill:#8d6c9f;"/><path d="M27,52a1,1,0,0,0-1,1v2a1,1,0,0,0,2,0V53A1,1,0,0,0,27,52Z" style="fill:#8d6c9f;"/><path d="M32,52a1,1,0,0,0-1,1v2a1,1,0,0,0,2,0V53A1,1,0,0,0,32,52Z" style="fill:#8d6c9f;"/><path d="M37,52a1,1,0,0,0-1,1v2a1,1,0,0,0,2,0V53A1,1,0,0,0,37,52Z" style="fill:#8d6c9f;"/><path d="M42,52a1,1,0,0,0-1,1v2a1,1,0,0,0,2,0V53A1,1,0,0,0,42,52Z" style="fill:#8d6c9f;"/><path d="M47,52a1,1,0,0,0-1,1v2a1,1,0,0,0,2,0V53A1,1,0,0,0,47,52Z" style="fill:#8d6c9f;"/><path d="M52,52a1,1,0,0,0-1,1v2a1,1,0,0,0,2,0V53A1,1,0,0,0,52,52Z" style="fill:#8d6c9f;"/><path d="M57,52a1,1,0,0,0-1,1v2a1,1,0,0,0,2,0V53A1,1,0,0,0,57,52Z" style="fill:#8d6c9f;"/></svg>
