<?xml version="1.0"?>
<svg xmlns="http://www.w3.org/2000/svg" id="Layer_1" data-name="Layer 1" viewBox="0 0 64 64"><title>Icons8 RSL Colored Part 10</title><rect x="11" y="1" width="34" height="62" rx="6" ry="6" style="fill:#acb7d0;"/><path d="M11,53H45a0,0,0,0,1,0,0v4a6,6,0,0,1-6,6H17a6,6,0,0,1-6-6V53A0,0,0,0,1,11,53Z" style="fill:#acb7d0;"/><rect x="11" y="9" width="34" height="44" style="fill:#c5e4fa;"/><polygon points="27 53 45.38 34.63 45 20 12 53 27 53" style="fill:#e3f2ff;"/><polygon points="11 50 45 16 45 10 11 44 11 50" style="fill:#e3f2ff;"/><polygon points="11 40 42 9 37 9 11 35 11 40" style="fill:#e3f2ff;"/><polygon points="18.5 13 19.74 15.26 22 16.5 19.74 17.74 18.5 20 17.26 17.74 15 16.5 17.26 15.26 18.5 13" style="fill:#fff8f8;"/><polygon points="26.42 26.16 27.27 27.73 28.84 28.58 27.27 29.44 26.42 31 25.56 29.44 24 28.58 25.56 27.73 26.42 26.16" style="fill:#fff8f8;"/><polygon points="17.65 36.7 18.23 37.77 19.3 38.35 18.23 38.94 17.65 40 17.07 38.94 16 38.35 17.07 37.77 17.65 36.7" style="fill:#fff8f8;"/><path d="M63,41H48.31S44,48,41,48c1-3-.31-7-.31-7H33V15H63Z" style="fill:#85cbf8;"/><path d="M54.07,33H42a1,1,0,0,1-.92-1.38L43,27l.51-4.08A4.48,4.48,0,0,1,48,19h.13a4.48,4.48,0,0,1,4.44,3.89L53.07,27,55,31.62A1,1,0,0,1,54.07,33Z" style="fill:#f9e3ae;"/><path d="M54.07,33H42a1,1,0,0,1-.92-1.38L43,27H53.07L55,31.62A1,1,0,0,1,54.07,33Z" style="fill:#f6d397;"/><path d="M16,44a1,1,0,0,0-1,1v2a1,1,0,0,0,2,0V45A1,1,0,0,0,16,44Z" style="fill:#8d6c9f;"/><path d="M21,44a1,1,0,0,0-1,1v2a1,1,0,0,0,2,0V45A1,1,0,0,0,21,44Z" style="fill:#8d6c9f;"/><path d="M26,44a1,1,0,0,0-1,1v2a1,1,0,0,0,2,0V45A1,1,0,0,0,26,44Z" style="fill:#8d6c9f;"/><path d="M31,44a1,1,0,0,0-1,1v2a1,1,0,0,0,2,0V45A1,1,0,0,0,31,44Z" style="fill:#8d6c9f;"/><path d="M36,44a1,1,0,0,0-1,1v2a1,1,0,0,0,2,0V45A1,1,0,0,0,36,44Z" style="fill:#8d6c9f;"/><circle cx="28" cy="58" r="2" style="fill:#8d6c9f;"/><path d="M33,4H29a1,1,0,0,0,0,2h4a1,1,0,0,0,0-2Z" style="fill:#8d6c9f;"/><path d="M25,4H23a1,1,0,0,0,0,2h2a1,1,0,0,0,0-2Z" style="fill:#8d6c9f;"/><path d="M61,14H46V7a7,7,0,0,0-7-7H17a7,7,0,0,0-7,7V57a7,7,0,0,0,7,7H39a7,7,0,0,0,7-7V46.33A10.34,10.34,0,0,0,48.76,42H61a3,3,0,0,0,3-3V17A3,3,0,0,0,61,14ZM12,7a5,5,0,0,1,5-5H39a5,5,0,0,1,5,5V8H12ZM44,57a5,5,0,0,1-5,5H17a5,5,0,0,1-5-5V54H44Zm0-5H12V10H44v4H35a3,3,0,0,0-3,3V39a3,3,0,0,0,3,3h5.21a12,12,0,0,1-1.14,5.63A1,1,0,0,0,40,49h.14A11.46,11.46,0,0,0,44,47.76ZM62,39a1,1,0,0,1-1,1H48a1,1,0,0,0-1,.83,7.87,7.87,0,0,1-5.46,5.8c1.26-4,.45-5.86.34-6.08A1,1,0,0,0,41,40H35a1,1,0,0,1-1-1V17a1,1,0,0,1,1-1H61a1,1,0,0,1,1,1Z" style="fill:#8d6c9f;"/><path d="M54,26.74l-.53-4A5.5,5.5,0,0,0,48.08,18H48a5.49,5.49,0,0,0-5.44,4.8L42,26.74l-1.87,4.49A2,2,0,0,0,42,34h4a2,2,0,0,0,4,0h4.07a2,2,0,0,0,1.85-2.77ZM42,32l1.67-4H49a1,1,0,0,0,0-2H44.13l.37-3A3.49,3.49,0,0,1,48,20h.12a3.49,3.49,0,0,1,3.45,3l.55,4.11a1,1,0,0,0,.07.25L54.07,32Z" style="fill:#8d6c9f;"/></svg>
