<?xml version="1.0" encoding="iso-8859-1"?>
<!-- Generator: Adobe Illustrator 21.1.0, SVG Export Plug-In . SVG Version: 6.00 Build 0)  -->
<svg xmlns="http://www.w3.org/2000/svg" xmlns:xlink="http://www.w3.org/1999/xlink" version="1.1" id="Layer_1" x="0px" y="0px" viewBox="0 0 64 64" style="enable-background:new 0 0 64 64;" xml:space="preserve">
<g>
	<circle style="fill:#72CAAF;" cx="31" cy="31" r="28"/>
	<path style="fill:#F9E3AE;" d="M31,3C15.536,3,3,15.536,3,31s12.536,28,28,28s28-12.536,28-28S46.464,3,31,3z M31,53   C18.85,53,9,43.15,9,31S18.85,9,31,9c5.883,0,11.226,2.309,15.174,6.07c0.231,0.22,0.456,0.444,0.677,0.674   c0.258,0.268,0.51,0.543,0.755,0.825C50.966,20.432,53,25.478,53,31C53,43.15,43.15,53,31,53z"/>
	<path style="fill:#F6D397;" d="M31,53C18.85,53,9,43.15,9,31H7.339c-2.491,0-4.361,2.25-3.945,4.706C5.631,48.929,17.14,59,31,59   s25.369-10.071,27.606-23.294C59.022,33.25,57.152,31,54.661,31H53C53,43.15,43.15,53,31,53z"/>
	<polygon style="fill:#FFFFFF;" points="37,17 20.084,33 29,33 24.071,45 42.144,29.011 33.117,29  "/>
	<g>
		<polygon style="fill:#F9E3AE;" points="36.832,17.39 20.419,33.169 28,34 23.871,45 42.362,29.505 33.931,28.669   "/>
		<path style="fill:#F6D397;" d="M41.834,29.577l-7.902-0.908l1.937-6.957l-7.189,7.601C28.076,29.95,28.528,31,29.406,31h2.77    c0.79,0,1.268,0.872,0.843,1.538L25.735,43.96L41.834,29.577z"/>
	</g>
	<g>
		<path style="fill:#8D6C9F;" d="M31,2C15.009,2,2,15.009,2,31s13.009,29,29,29s29-13.009,29-29S46.991,2,31,2z M31,58    C16.112,58,4,45.888,4,31S16.112,4,31,4s27,12.112,27,27S45.888,58,31,58z"/>
		<path style="fill:#8D6C9F;" d="M31,50c-0.552,0-1,0.448-1,1v2c0,0.552,0.448,1,1,1s1-0.448,1-1v-2C32,50.448,31.552,50,31,50z"/>
		<path style="fill:#8D6C9F;" d="M37.013,50.077c-0.143-0.534-0.688-0.852-1.225-0.707c-0.533,0.143-0.85,0.691-0.707,1.225    l0.518,1.932c0.12,0.447,0.523,0.742,0.965,0.742c0.085,0,0.172-0.011,0.259-0.035c0.533-0.143,0.85-0.691,0.707-1.225    L37.013,50.077z"/>
		<path style="fill:#8D6C9F;" d="M21.75,47.521c-0.479-0.276-1.09-0.112-1.366,0.366l-1,1.732c-0.276,0.478-0.112,1.09,0.366,1.366    c0.157,0.091,0.33,0.134,0.499,0.134c0.346,0,0.682-0.179,0.867-0.5l1-1.732C22.392,48.41,22.229,47.798,21.75,47.521z"/>
		<path style="fill:#8D6C9F;" d="M41.616,47.888c-0.277-0.479-0.89-0.643-1.366-0.366c-0.479,0.276-0.642,0.888-0.366,1.366l1,1.732    c0.186,0.321,0.521,0.5,0.867,0.5c0.169,0,0.342-0.043,0.499-0.134c0.479-0.276,0.642-0.888,0.366-1.366L41.616,47.888z"/>
		<path style="fill:#8D6C9F;" d="M26.212,49.37c-0.536-0.145-1.082,0.173-1.225,0.707l-0.518,1.932    c-0.143,0.534,0.174,1.082,0.707,1.225c0.087,0.023,0.174,0.035,0.259,0.035c0.442,0,0.846-0.295,0.965-0.742l0.518-1.932    C27.062,50.061,26.745,49.512,26.212,49.37z"/>
		<path style="fill:#8D6C9F;" d="M38.351,11.322c0.712,0.267,1.419,0.576,2.099,0.919c0.145,0.073,0.298,0.107,0.45,0.107    c0.366,0,0.718-0.201,0.894-0.549c0.249-0.493,0.051-1.095-0.442-1.343c-0.746-0.376-1.52-0.715-2.3-1.007    c-0.515-0.193-1.094,0.069-1.287,0.586C37.571,10.553,37.833,11.128,38.351,11.322z"/>
		<path style="fill:#8D6C9F;" d="M10,31c0-5.609,2.185-10.883,6.151-14.849c4.748-4.749,11.544-6.949,18.187-5.886    c0.553,0.089,1.058-0.284,1.146-0.829S35.2,8.377,34.654,8.291c-7.274-1.165-14.717,1.246-19.917,6.446    C10.393,19.081,8,24.856,8,31s2.393,11.919,6.737,16.263c0.195,0.195,0.451,0.293,0.707,0.293s0.512-0.098,0.707-0.293    c0.391-0.391,0.391-1.023,0-1.414C12.185,41.883,10,36.609,10,31z"/>
		<path style="fill:#8D6C9F;" d="M47.263,14.737c-0.661-0.661-1.365-1.286-2.093-1.856c-0.434-0.341-1.063-0.265-1.404,0.17    c-0.341,0.435-0.265,1.063,0.17,1.404c0.665,0.521,1.309,1.092,1.913,1.696C49.815,20.117,52,25.391,52,31    s-2.185,10.883-6.151,14.849c-0.391,0.391-0.391,1.023,0,1.414c0.195,0.195,0.451,0.293,0.707,0.293s0.512-0.098,0.707-0.293    C51.607,42.919,54,37.144,54,31S51.607,19.081,47.263,14.737z"/>
		<path style="fill:#8D6C9F;" d="M42.146,28.011l-7.654-0.009l3.46-10.694c0.141-0.435-0.031-0.909-0.418-1.153    c-0.387-0.245-0.889-0.195-1.221,0.119l-16.917,16c-0.298,0.281-0.394,0.716-0.242,1.096c0.151,0.381,0.52,0.63,0.929,0.63h7.425    l-4.362,10.62c-0.177,0.43-0.034,0.925,0.345,1.195C23.666,45.939,23.869,46,24.071,46c0.238,0,0.475-0.084,0.663-0.251    L42.807,29.76c0.311-0.275,0.42-0.714,0.273-1.103C42.933,28.269,42.561,28.011,42.146,28.011z M26.631,41.4l3.294-8.021    c0.127-0.309,0.091-0.66-0.094-0.937C29.645,32.166,29.333,32,29,32h-6.404l12.248-11.584l-2.678,8.277    c-0.098,0.304-0.045,0.637,0.143,0.896C32.497,29.846,32.797,30,33.117,30l6.392,0.008L26.631,41.4z"/>
	</g>
</g>
</svg>
